<svg version="1.0" xmlns="http://www.w3.org/2000/svg"
 width="207.000000pt" height="207.000000pt" viewBox="0 0 207.000000 207.000000"
 preserveAspectRatio="xMidYMid meet">

<g transform="translate(0.000000,207.000000) scale(0.100000,-0.100000)"
fill="#e50914" stroke="none">
<path d="M724 1861 c-23 -10 -50 -33 -61 -52 -23 -37 -347 -1541 -341 -1582 3
-21 7 -22 138 -25 98 -2 140 1 152 10 13 10 55 189 165 710 l148 698 49 0 48
0 -7 -37 c-3 -21 -70 -334 -146 -696 -77 -363 -138 -665 -135 -673 4 -11 34
-14 145 -14 135 0 141 1 155 23 8 12 78 323 156 692 78 369 144 678 146 688 4
13 16 17 56 17 47 0 50 -1 45 -22 -34 -136 -287 -1354 -285 -1371 3 -21 7 -22
139 -25 121 -2 137 -1 152 16 12 13 68 259 177 781 88 419 160 773 160 786 0
40 -21 73 -53 85 -17 5 -110 10 -211 10 -235 -1 -262 -11 -303 -115 l-11 -30
-1 42 c-1 29 -8 50 -25 70 l-24 28 -194 3 c-172 2 -198 0 -234 -17z"/>
</g>
</svg>
